<svg xmlns="http://www.w3.org/2000/svg" viewBox="0 0 512 512">
  <rect width="512" height="512" rx="96" fill="#176b87"/>
  <path d="M138 120h236c25 0 44 19 44 44v250c0 10-8 18-18 18H150c-31 0-56-25-56-56V164c0-25 19-44 44-44z" fill="#fffdf8"/>
  <path d="M140 120h212v250H140c-26 0-46 16-46 37V164c0-25 19-44 46-44z" fill="#f7f4ee"/>
  <path d="M158 180h156M158 234h196M158 288h144" stroke="#176b87" stroke-width="28" stroke-linecap="round"/>
  <path d="M358 120v168l-40-28-40 28V120z" fill="#2f8f6b"/>
</svg>
